<svg xmlns="http://www.w3.org/2000/svg" width="12" height="12" fill="none" viewBox="0 0 12 12"><path fill="#fff" d="M6 1C3.23892 1 1 3.27394 1 6.07821C1 8.45898 2.61345 10.4487 4.78851 11C4.76409 10.9313 4.74906 10.8531 4.74906 10.7539V9.88592C4.54621 9.88592 4.20624 9.88592 4.12171 9.88592C3.77986 9.88592 3.47558 9.73712 3.3272 9.4586C3.16379 9.14956 3.13561 8.67837 2.7299 8.39031C2.60969 8.29302 2.69985 8.18428 2.83884 8.19954C3.09617 8.27203 3.30841 8.45135 3.50751 8.71652C3.70849 8.98169 3.80053 9.04082 4.17431 9.04082C4.35462 9.04082 4.62322 9.03129 4.87866 8.98932C5.01578 8.63831 5.25056 8.31209 5.53982 8.15948C3.87378 7.98588 3.07926 7.1446 3.07926 6.00191C3.07926 5.50973 3.28588 5.03472 3.63712 4.63411C3.52254 4.23541 3.37791 3.42465 3.68032 3.11561C4.42975 3.11561 4.88242 3.60969 4.99136 3.74323C5.36514 3.6116 5.77461 3.53911 6.20661 3.53911C6.63862 3.53911 7.04996 3.6116 7.42374 3.74323C7.5308 3.6116 7.98535 3.11561 8.73666 3.11561C9.04095 3.42465 8.89444 4.23922 8.77799 4.63602C9.12735 5.03663 9.33208 5.51164 9.33208 6.00191C9.33208 7.14269 8.53757 7.98398 6.87528 8.15948C7.33358 8.40175 7.66604 9.08279 7.66604 9.59596V10.7539C7.66604 10.7978 7.65665 10.8302 7.65289 10.8665C9.60068 10.174 11 8.29493 11 6.07821C11 3.27394 8.76108 1 6 1Z"/></svg>