<svg width="12" height="12" viewBox="0 0 12 12" fill="none" xmlns="http://www.w3.org/2000/svg"><path d="M4.11668 1.2002C2.50861 1.2002 1.20001 2.50879 1.20001 4.11686V8.28353C1.20001 9.8916 2.50861 11.2002 4.11668 11.2002H8.28335C9.89142 11.2002 11.2 9.8916 11.2 8.28353V4.11686C11.2 2.50879 9.89142 1.2002 8.28335 1.2002H4.11668ZM9.11668 2.86686C9.34617 2.86686 9.53335 3.05404 9.53335 3.28353C9.53335 3.51302 9.34617 3.7002 9.11668 3.7002C8.88719 3.7002 8.70001 3.51302 8.70001 3.28353C8.70001 3.05404 8.88719 2.86686 9.11668 2.86686ZM6.20001 3.7002C7.57859 3.7002 8.70001 4.82161 8.70001 6.2002C8.70001 7.57878 7.57859 8.7002 6.20001 8.7002C4.82143 8.7002 3.70001 7.57878 3.70001 6.2002C3.70001 4.82161 4.82143 3.7002 6.20001 3.7002ZM6.20001 4.53353C5.27879 4.53353 4.53335 5.27897 4.53335 6.2002C4.53335 7.12142 5.27879 7.86686 6.20001 7.86686C7.12124 7.86686 7.86668 7.12142 7.86668 6.2002C7.86668 5.27897 7.12124 4.53353 6.20001 4.53353Z" fill="white"/></svg>
