<svg width="12" height="12" viewBox="0 0 12 12" fill="none" xmlns="http://www.w3.org/2000/svg"><path d="M9.4 2H3C2.44766 2 2 2.44766 2 3V9.4C2 9.95235 2.44766 10.4 3 10.4H9.4C9.95235 10.4 10.4 9.95235 10.4 9.4V3C10.4 2.44766 9.95235 2 9.4 2ZM4.6 5.2V9H3.4V5.2H4.6ZM3.4 4.09375C3.4 3.81406 3.63984 3.6 4 3.6C4.36016 3.6 4.58594 3.81406 4.6 4.09375C4.6 4.37422 4.37578 4.6 4 4.6C3.63984 4.6 3.4 4.37422 3.4 4.09375ZM9 9H7.8C7.8 9 7.8 7.14766 7.8 7C7.8 6.6 7.6 6.2 7.1 6.19219H7.08438C6.6 6.19219 6.4 6.60391 6.4 7C6.4 7.18203 6.4 9 6.4 9H5.2V5.2H6.4V5.71172C6.4 5.71172 6.78594 5.2 7.56172 5.2C8.35625 5.2 9 5.74609 9 6.85235V9Z" fill="white"/></svg>
