<svg xmlns="http://www.w3.org/2000/svg" width="12" height="12" fill="none" viewBox="0 0 12 12"><path stroke="#fff" stroke-linecap="round" stroke-linejoin="round" d="M4.33483 5.85119C4.72381 6.64644 5.36844 7.28814 6.16545 7.6735C6.22377 7.70113 6.28827 7.7131 6.35261 7.70823C6.41696 7.70337 6.47893 7.68182 6.53242 7.64573L7.70597 6.86319C7.75787 6.82858 7.81759 6.80746 7.87971 6.80175C7.94183 6.79605 8.00439 6.80593 8.06173 6.8305L10.2572 7.77142C10.3318 7.80311 10.3941 7.85817 10.4346 7.92831C10.4752 7.99846 10.4919 8.07989 10.4821 8.16033C10.4127 8.70333 10.1478 9.20243 9.73693 9.56415C9.32606 9.92588 8.79742 10.1254 8.25 10.1255C6.55924 10.1255 4.93774 9.45382 3.74219 8.25828C2.54665 7.06273 1.875 5.44123 1.875 3.75047C1.87503 3.20305 2.07459 2.67442 2.43632 2.26354C2.79805 1.85266 3.29714 1.58773 3.84014 1.51833C3.92058 1.5086 4.00201 1.52527 4.07216 1.56584C4.1423 1.6064 4.19737 1.66867 4.22905 1.74325L5.17079 3.94065C5.19515 3.99749 5.20507 4.05947 5.19968 4.12107C5.19429 4.18267 5.17375 4.24198 5.13988 4.29372L4.36005 5.48527C4.32456 5.53888 4.30358 5.60077 4.29916 5.6649C4.29474 5.72904 4.30702 5.79322 4.33483 5.85119V5.85119Z"/></svg>