<svg width="33" height="33" viewBox="0 0 33 33" fill="none" xmlns="http://www.w3.org/2000/svg">
<path d="M27.5975 3.83337L4.93079 3.83337L6.93079 26.5L16.2641 29.1667L25.5975 26.5L27.5975 3.83337Z" fill="#0277BD"/>
<path d="M16.2642 5.83337L16.2642 27.1L23.7308 24.9667L25.3975 5.83337L16.2642 5.83337Z" fill="#039BE5"/>
<path d="M22.3308 9.16663L16.2642 9.16663L16.2642 11.8333L19.5308 11.8333L19.3308 14.5L16.2642 14.5L16.2642 17.1666L19.1975 17.1666L18.9975 20.1666L16.2642 21.1L16.2642 23.9L21.5308 22.1666L21.9975 14.5L22.3308 9.16663Z" fill="white"/>
<path d="M16.2642 9.16663L16.2642 11.8333L10.3309 11.8333L10.1309 9.16663L16.2642 9.16663ZM13.1975 14.5L13.3309 17.1666L16.2642 17.1666L16.2642 14.5L13.1975 14.5ZM13.4642 18.5L10.7975 18.5L10.9975 22.1666L16.2642 23.9L16.2642 21.1L13.5309 20.1666L13.4642 18.5Z" fill="#EEEEEE"/>
</svg>
