<svg width="33" height="33" viewBox="0 0 33 33" fill="none" xmlns="http://www.w3.org/2000/svg">
<path d="M28.3975 15.2334L17.5309 4.36671C17.1975 4.03337 16.7309 3.83337 16.2642 3.83337C15.7975 3.83337 15.3309 4.03337 14.9975 4.36671L12.6642 6.70004L15.3975 9.43337C15.6642 9.30004 15.9309 9.23337 16.2642 9.23337C17.3975 9.23337 18.2642 10.1 18.2642 11.2334C18.2642 11.5667 18.1975 11.8334 18.0642 12.1L20.7309 14.7667C20.9975 14.6334 21.2642 14.5667 21.5975 14.5667C22.7309 14.5667 23.5975 15.4334 23.5975 16.5667C23.5975 17.7 22.7309 18.5667 21.5975 18.5667C20.4642 18.5667 19.5975 17.7 19.5975 16.5667C19.5975 16.2334 19.6642 15.9667 19.7975 15.7L17.1309 13.0334C17.0642 13.0334 16.9975 13.1 16.9309 13.1L16.9309 20.0334C17.7309 20.3 18.2642 21.0334 18.2642 21.9C18.2642 23.0334 17.3975 23.9 16.2642 23.9C15.1309 23.9 14.2642 23.0334 14.2642 21.9C14.2642 21.0334 14.7975 20.3 15.5975 20.0334L15.5975 13.0334C14.7975 12.7667 14.2642 12.0334 14.2642 11.1667C14.2642 10.8334 14.3309 10.5667 14.4642 10.3L11.7309 7.56671L4.13087 15.2334C3.79753 15.5667 3.59753 16.0334 3.59753 16.5C3.59753 16.9667 3.79753 17.4334 4.13087 17.7667L14.9975 28.6334C15.3309 28.9667 15.7975 29.1667 16.2642 29.1667C16.7309 29.1667 17.1975 28.9667 17.5309 28.6334L28.3975 17.7667C28.7309 17.4334 28.9309 16.9667 28.9309 16.5C28.9309 16.0334 28.7309 15.5667 28.3975 15.2334Z" fill="#F4511E"/>
</svg>
