<svg width="33" height="33" viewBox="0 0 33 33" fill="none" xmlns="http://www.w3.org/2000/svg">
<path d="M27.5975 3.83337L4.93079 3.83337L6.93079 26.5L16.2641 29.1667L25.5975 26.5L27.5975 3.83337Z" fill="#E65100"/>
<path d="M16.2642 5.83337L16.2642 27.1L23.7308 24.9667L25.3975 5.83337L16.2642 5.83337Z" fill="#FF6D00"/>
<path d="M16.2642 17.1666L16.2642 14.5L21.9975 14.5L21.5308 22.1666L16.2642 23.9L16.2642 21.1L18.9975 20.1666L19.1975 17.1666L16.2642 17.1666V17.1666ZM22.1975 11.8333L22.3975 9.16663L16.2642 9.16663L16.2642 11.8333L22.1975 11.8333Z" fill="white"/>
<path d="M16.2642 21.1L16.2642 23.9L10.9975 22.1666L10.7308 18.5L13.3975 18.5L13.5308 20.1666L16.2642 21.1ZM12.9975 11.8333L16.2642 11.8333L16.2642 9.16663L10.1975 9.16663L10.6642 17.1666L16.2642 17.1666L16.2642 14.5L13.1975 14.5L12.9975 11.8333Z" fill="#EEEEEE"/>
</svg>
