<svg width="33" height="33" viewBox="0 0 33 33" fill="none" xmlns="http://www.w3.org/2000/svg">
<path d="M4.26416 28.5L4.26416 4.5L28.2642 4.5L28.2642 28.5L4.26416 28.5Z" fill="#FFD600"/>
<path d="M19.9562 22.4646C20.4175 23.214 20.9189 23.932 21.9809 23.932C22.8729 23.932 23.3409 23.4886 23.3409 22.8753C23.3409 22.1413 22.8569 21.8806 21.8755 21.4533L21.3375 21.224C19.7849 20.5653 18.7522 19.74 18.7522 17.9966C18.7522 16.39 19.9822 15.1673 21.9042 15.1673C23.2729 15.1673 24.2562 15.6413 24.9655 16.8826L23.2895 17.954C22.9209 17.2953 22.5222 17.036 21.9042 17.036C21.2735 17.036 20.8742 17.434 20.8742 17.954C20.8742 18.5966 21.2742 18.8566 22.1975 19.2546L22.7355 19.484C24.5655 20.2633 25.5975 21.0593 25.5975 22.8486C25.5975 24.7766 24.0749 25.8333 22.0309 25.8333C20.0315 25.8333 18.8962 24.83 18.2642 23.588L19.9562 22.4646ZM12.2322 22.5193C12.5695 23.1233 13.0822 23.588 13.8195 23.588C14.5249 23.588 14.9309 23.3093 14.9309 22.226L14.9309 15.1666L17.1529 15.1666L17.1529 22.5673C17.1529 24.812 15.8509 25.8333 13.9495 25.8333C12.2315 25.8333 10.9915 24.6693 10.4862 23.588L12.2322 22.5193Z" fill="#000001"/>
</svg>
