<svg width="33" height="33" viewBox="0 0 33 33" fill="none" xmlns="http://www.w3.org/2000/svg">
<path d="M28.2642 12.0333C28.2642 25.7 16.2642 29.8333 16.2642 29.8333C16.2642 29.8333 4.26416 25.7 4.26416 12.0333C4.26416 10.3666 4.39749 8.96663 4.53083 7.83329C4.73083 6.16663 5.86416 4.83329 7.46416 4.43329C9.53083 3.83329 12.7975 3.16663 16.2642 3.16663C19.7308 3.16663 22.9975 3.83329 25.1308 4.43329C26.7308 4.83329 27.8642 6.23329 28.0642 7.83329C28.1308 8.96663 28.2642 10.4333 28.2642 12.0333Z" fill="#5D4037"/>
<path d="M16.2642 5.16663C19.5308 5.16663 22.5975 5.83329 24.5975 6.36663C25.3975 6.56663 25.9308 7.23329 26.0642 8.09996C26.1975 9.36663 26.2642 10.7 26.2642 12.0333C26.2642 22.4333 18.5975 26.6333 16.2642 27.6333C13.9308 26.5666 6.26416 22.3666 6.26416 12.0333C6.26416 10.7 6.33083 9.36663 6.46416 8.09996C6.53083 7.23329 7.13083 6.56663 7.93083 6.36663C9.93083 5.83329 12.9975 5.16663 16.2642 5.16663ZM16.2642 3.16663C12.7975 3.16663 9.53083 3.83329 7.39749 4.43329C5.86416 4.83329 4.66416 6.23329 4.53083 7.83329C4.39749 8.96663 4.26416 10.4333 4.26416 12.0333C4.26416 25.7 16.2642 29.8333 16.2642 29.8333C16.2642 29.8333 28.2642 25.7 28.2642 12.0333C28.2642 10.3666 28.1308 8.96663 27.9975 7.83329C27.7975 6.16663 26.6642 4.83329 25.0642 4.43329C22.9975 3.83329 19.7308 3.16663 16.2642 3.16663Z" fill="#4CAF50"/>
<path d="M15.5975 19.1666L16.9309 19.1666L16.9309 24.5L15.5975 24.5L15.5975 19.1666Z" fill="#DCEDC8"/>
<path d="M16.2642 7.16663C16.2642 7.16663 12.2642 10.5 12.2642 15.8333C12.2642 19.3 14.4642 21.5 15.5975 22.5L16.2642 20.5L16.9308 22.5C18.0642 21.5 20.2642 19.3 20.2642 15.8333C20.2642 10.5 16.2642 7.16663 16.2642 7.16663Z" fill="#4CAF50"/>
<path d="M16.2642 7.16663C16.2642 7.16663 12.2642 10.5 12.2642 15.8333C12.2642 19.3 14.4642 21.5 15.5975 22.5L16.2642 20.5L16.2642 7.16663Z" fill="#81C784"/>
</svg>
