<svg width="43" height="43" viewBox="0 0 43 43" fill="none" xmlns="http://www.w3.org/2000/svg">
<path d="M20.4782 9.50646C20.4266 9.51115 20.2624 9.52757 20.1146 9.5393C16.7058 9.84658 13.5128 11.6856 11.4906 14.5122C10.3645 16.0838 9.64422 17.8665 9.37208 19.7548C9.27589 20.4139 9.26416 20.6086 9.26416 21.5023C9.26416 22.3961 9.27589 22.5908 9.37208 23.2499C10.0243 27.756 13.2313 31.5419 17.5809 32.9447C18.3598 33.1956 19.1809 33.3669 20.1146 33.4701C20.4782 33.51 22.0501 33.51 22.4137 33.4701C24.0255 33.2918 25.3908 32.8931 26.7375 32.2058C26.9439 32.1002 26.9838 32.0721 26.9557 32.0486C26.9369 32.0345 26.0571 30.8546 25.0014 29.4285L23.0823 26.8365L20.6776 23.278C19.3545 21.3217 18.2659 19.722 18.2565 19.722C18.2472 19.7196 18.2378 21.3006 18.2331 23.2311C18.226 26.6113 18.2237 26.7473 18.1815 26.8271C18.1205 26.942 18.0735 26.9889 17.975 27.0405C17.8999 27.0781 17.8342 27.0851 17.48 27.0851L17.0741 27.0851L16.9662 27.0171C16.8958 26.9725 16.8442 26.9139 16.809 26.8458L16.7598 26.7403L16.7645 22.0372L16.7715 17.3317L16.8442 17.2402C16.8818 17.191 16.9615 17.1276 17.0178 17.0971C17.114 17.0502 17.1516 17.0455 17.5574 17.0455C18.036 17.0455 18.1158 17.0643 18.2401 17.2003C18.2753 17.2379 19.5774 19.1989 21.1351 21.561C22.6929 23.9231 24.8231 27.1484 25.8694 28.7318L27.7697 31.61L27.8659 31.5466C28.7175 30.993 29.6184 30.2049 30.3316 29.3839C31.8495 27.641 32.8278 25.5158 33.1562 23.2499C33.2524 22.5908 33.2642 22.3961 33.2642 21.5023C33.2642 20.6086 33.2524 20.4139 33.1562 19.7548C32.504 15.2487 29.297 11.4628 24.9474 10.06C24.1803 9.8114 23.3639 9.64016 22.4489 9.53695C22.2237 9.5135 20.673 9.48769 20.4782 9.50646ZM25.3908 16.764C25.5035 16.8203 25.595 16.9282 25.6278 17.0408C25.6466 17.1018 25.6513 18.406 25.6466 21.3452L25.6395 25.5627L24.8958 24.4227L24.1498 23.2827L24.1498 20.2169C24.1498 18.2348 24.1592 17.1206 24.1733 17.0666C24.2108 16.9353 24.2929 16.8321 24.4055 16.7711C24.5017 16.7218 24.5369 16.7171 24.9052 16.7171C25.2524 16.7171 25.3134 16.7218 25.3908 16.764Z" fill="white"/>
</svg>
