<svg width="33" height="33" viewBox="0 0 33 33" fill="none" xmlns="http://www.w3.org/2000/svg">
<path d="M26.8422 17.804C25.8168 17.8093 24.9288 18.0553 24.1848 18.4226C23.9128 17.8793 23.6368 17.4013 23.5908 17.046C23.5368 16.6313 23.4742 16.3833 23.5395 15.8893C23.6048 15.3953 23.8908 14.6953 23.8868 14.6426C23.8828 14.59 23.8228 14.3386 23.2315 14.334C22.6402 14.33 22.1342 14.448 22.0748 14.604C22.0155 14.76 21.9015 15.1113 21.8308 15.478C21.7275 16.014 20.6502 17.9266 20.0388 18.9266C19.8388 18.536 19.6688 18.192 19.6335 17.92C19.5795 17.5053 19.5168 17.2573 19.5822 16.7633C19.6475 16.2693 19.9335 15.5693 19.9295 15.5166C19.9255 15.464 19.8655 15.2126 19.2742 15.208C18.6828 15.204 18.1768 15.322 18.1175 15.478C18.0582 15.634 17.9942 15.9986 17.8735 16.352C17.7522 16.7046 16.3208 19.8946 15.9455 20.722C15.7542 21.1433 15.5882 21.482 15.4708 21.7126C15.4702 21.712 15.4702 21.7113 15.4702 21.7113C15.4702 21.7113 15.4628 21.7266 15.4508 21.7526C15.3502 21.9493 15.2908 22.058 15.2908 22.058C15.2908 22.058 15.2915 22.0593 15.2928 22.062C15.2128 22.2066 15.1275 22.3406 15.0855 22.3406C15.0562 22.3406 14.9968 21.956 15.0982 21.428C15.3115 20.3213 15.8228 18.596 15.8182 18.536C15.8155 18.5053 15.9135 18.2046 15.4842 18.0473C15.0668 17.8946 14.9182 18.1493 14.8802 18.15C14.8435 18.1506 14.8162 18.24 14.8162 18.24C14.8162 18.24 15.2808 16.2993 13.9295 16.2993C13.0842 16.2993 11.9135 17.224 11.3368 18.062C10.9728 18.2606 10.1935 18.686 9.3675 19.14C9.05017 19.3146 8.72617 19.4926 8.41883 19.662C8.39817 19.6386 8.37683 19.616 8.3555 19.5926C6.71617 17.844 3.68683 16.6073 3.81483 14.256C3.8615 13.4013 4.15883 11.1506 9.63683 8.42129C14.1242 6.18529 17.7168 6.80062 18.3375 8.16395C19.2242 10.1126 16.4175 13.7333 11.7575 14.256C9.98217 14.4553 9.04683 13.7666 8.81417 13.5106C8.5695 13.2406 8.53283 13.2286 8.4415 13.2793C8.29283 13.362 8.38683 13.6 8.4415 13.742C8.58083 14.104 9.1515 14.746 10.1248 15.066C10.9815 15.3473 13.0662 15.5013 15.5868 14.526C18.4108 13.434 20.6155 10.3953 19.9675 7.85595C19.3088 5.27329 15.0262 4.42395 10.9728 5.86395C8.5575 6.72129 5.94617 8.06662 4.06817 9.82262C1.8355 11.9106 1.4795 13.7286 1.62617 14.488C2.1475 17.1866 5.86683 18.944 7.35617 20.246C7.28283 20.2866 7.2135 20.3246 7.15083 20.3593C6.40417 20.7286 3.56883 22.2126 2.8595 23.78C2.05483 25.558 2.9875 26.834 3.60483 27.006C5.5175 27.538 7.48017 26.5806 8.5355 25.0073C9.59017 23.4346 9.4615 21.386 8.9775 20.4513C8.9715 20.44 8.96483 20.4286 8.95883 20.4166C9.1515 20.3026 9.34817 20.1866 9.54283 20.072C9.92283 19.8486 10.2962 19.6406 10.6195 19.4646C10.4382 19.9606 10.3055 20.556 10.2368 21.4153C10.1555 22.4246 10.5695 23.7293 11.1108 24.2426C11.3495 24.4686 11.6362 24.474 11.8175 24.474C12.4475 24.474 12.7348 23.95 13.0515 23.33C13.4395 22.57 13.7842 21.6846 13.7842 21.6846C13.7842 21.6846 13.3522 24.0753 14.5295 24.0753C14.9588 24.0753 15.3902 23.5186 15.5828 23.2353C15.5835 23.2386 15.5835 23.24 15.5835 23.24C15.5835 23.24 15.5948 23.2213 15.6168 23.1846C15.6615 23.1166 15.6868 23.0733 15.6868 23.0733C15.6868 23.0733 15.6875 23.0686 15.6888 23.0606C15.8615 22.7613 16.2442 22.0786 16.8175 20.9526C17.5588 19.498 18.2695 17.6753 18.2695 17.6753C18.2695 17.6753 18.3355 18.1206 18.5522 18.858C18.6795 19.2913 18.9502 19.7706 19.1642 20.2306C18.9922 20.4693 18.8868 20.606 18.8868 20.606C18.8868 20.606 18.8875 20.6086 18.8895 20.6133C18.7522 20.796 18.5982 20.9926 18.4368 21.1846C17.8515 21.8813 17.1548 22.6773 17.0615 22.9066C16.9515 23.1773 16.9775 23.376 17.1902 23.5366C17.3455 23.6533 17.6215 23.672 17.9102 23.6526C18.4362 23.6173 18.8055 23.4866 18.9882 23.4073C19.2728 23.3066 19.6042 23.1486 19.9148 22.92C20.4888 22.498 20.8348 21.8946 20.8015 21.0946C20.7828 20.654 20.6428 20.2173 20.4648 19.8053C20.5168 19.7306 20.5688 19.6546 20.6215 19.5786C21.5262 18.256 22.2282 16.8026 22.2282 16.8026C22.2282 16.8026 22.2942 17.248 22.5108 17.9853C22.6202 18.358 22.8368 18.7653 23.0315 19.164C22.1808 19.8553 21.6535 20.6586 21.4702 21.1853C21.1315 22.16 21.3968 22.6013 21.8942 22.702C22.1195 22.7473 22.4382 22.644 22.6775 22.5426C22.9755 22.444 23.3335 22.2793 23.6682 22.0333C24.2422 21.6113 24.7942 21.0206 24.7608 20.2213C24.7455 19.8573 24.6468 19.496 24.5128 19.1493C25.2342 18.8486 26.1675 18.682 27.3568 18.8206C29.9082 19.1186 30.4082 20.7113 30.3128 21.378C30.2168 22.0446 29.6822 22.4113 29.5028 22.522C29.3242 22.6326 29.2695 22.6713 29.2842 22.7533C29.3062 22.8726 29.3888 22.8686 29.5415 22.8426C29.7515 22.8073 30.8808 22.3006 30.9295 21.07C30.9902 19.506 29.4935 17.79 26.8422 17.804ZM7.1775 24.4333C6.33217 25.3553 5.15217 25.7033 4.6455 25.41C4.09883 25.0933 4.3155 23.736 5.35217 22.7573C5.98417 22.1613 6.80017 21.612 7.3415 21.274C7.46483 21.2 7.6455 21.0913 7.8655 20.9593C7.90217 20.9386 7.92283 20.9273 7.92283 20.9273L7.92217 20.926C7.96483 20.9006 8.00817 20.8746 8.05283 20.8473C8.43083 22.24 8.06483 23.466 7.1775 24.4333ZM13.3342 20.2486C13.0402 20.966 12.4242 22.802 12.0488 22.7033C11.7268 22.6186 11.5308 21.2233 11.9848 19.85C12.2128 19.1586 12.7008 18.3326 12.9875 18.012C13.4488 17.496 13.9568 17.3273 14.0802 17.5366C14.2368 17.8033 13.5188 19.7986 13.3342 20.2486ZM18.4202 22.6753C18.2955 22.7406 18.1808 22.7813 18.1282 22.75C18.0888 22.7266 18.1795 22.6406 18.1795 22.6406C18.1795 22.6406 18.8155 21.956 19.0662 21.6446C19.2122 21.4633 19.3808 21.248 19.5648 21.008C19.5662 21.032 19.5668 21.056 19.5668 21.0793C19.5655 21.8993 18.7735 22.4526 18.4202 22.6753ZM22.3382 21.782C22.2448 21.716 22.2608 21.502 22.5668 20.8346C22.6868 20.5726 22.9615 20.132 23.4375 19.7106C23.4928 19.884 23.5262 20.05 23.5255 20.2046C23.5195 21.2366 22.7835 21.622 22.3382 21.782Z" fill="#F06292"/>
</svg>
