<svg width="33" height="33" viewBox="0 0 33 33" fill="none" xmlns="http://www.w3.org/2000/svg">
<path d="M6.18343 28.5C5.12354 28.5 4.26416 27.6406 4.26416 26.5807L4.26416 6.41927C4.26416 5.35937 5.12354 4.5 6.18343 4.5L26.3449 4.5C27.4048 4.5 28.2642 5.35937 28.2642 6.41927L28.2642 26.5807C28.2642 27.6406 27.4048 28.5 26.3449 28.5L6.18343 28.5Z" fill="#CCCCCC"/>
<path d="M4.26416 4.5L28.2642 4.5L28.2642 28.5L4.26416 28.5L4.26416 4.5Z" fill="#1976D2"/>
<path d="M18.5897 15.1666L9.74854 15.1666L9.74854 17.3437L12.9204 17.3437L12.9204 27.1666L15.4334 27.1666L15.4334 17.3437L18.5897 17.3437L18.5897 15.1666Z" fill="white"/>
<path d="M26.3943 17.8906C26.3943 17.8906 25.2016 17.0938 23.8553 17.0938C22.5089 17.0938 22.0245 17.7344 22.0245 18.4193C22.0245 20.1849 26.9438 20.0078 26.9438 23.5599C26.9438 29.0339 19.4412 26.6042 19.4412 26.6042L19.4412 23.9792C19.4412 23.9792 20.8761 25.0625 22.5975 25.0625C24.3188 25.0625 24.2537 23.9349 24.2537 23.7813C24.2537 22.1484 19.3761 22.1484 19.3761 18.5287C19.3761 13.6094 26.4803 15.5495 26.4803 15.5495L26.3943 17.8906Z" fill="white"/>
</svg>
