<svg width="68" height="69" viewBox="0 0 68 69" fill="none" xmlns="http://www.w3.org/2000/svg"><g clip-path="url(#clip0_448_1770)"><path fill-rule="evenodd" clip-rule="evenodd" d="M14 68.0298H32C36.4183 68.0298 40 64.4481 40 60.0298H52.7H56V58.3298C56 57.4897 55.7062 56.676 55.1694 56.0298L40 37.7669V30.2927L55.1694 12.0298C55.7062 11.3835 56 10.5699 56 9.72982V8.02979H52.7H36H32C32 5.82065 33.7909 4.02979 36 4.02979H52.3795C58.5825 4.02979 61.9711 11.2645 58 16.0298L45.9071 30.714C44.6742 32.2111 44 34.0903 44 36.0298C45.9032 36.0298 47.7104 35.1941 48.9429 33.744L61.6682 18.7731C63.1735 17.0022 64 14.7536 64 12.4293V10.0298C64 4.50694 59.5228 0.0297852 54 0.0297852H36C31.5817 0.0297852 28 3.61151 28 8.02979H15.3H12V9.72982C12 10.5699 12.2938 11.3835 12.8306 12.0298L28 30.2927V37.7669L12.8306 56.0298C12.2938 56.676 12 57.4897 12 58.3298V60.0298H15.3H32H36C36 62.2389 34.2091 64.0298 32 64.0298H15.6205C9.41751 64.0298 6.02894 56.7951 10 52.0298L22.0929 37.3456C23.3258 35.8484 24 33.9693 24 32.0298C22.0968 32.0298 20.2896 32.8655 19.0571 34.3156L6.33184 49.2864C4.82652 51.0574 4 53.306 4 55.6303V58.0298C4 63.5526 8.47715 68.0298 14 68.0298ZM40 56.0298H49.3776L40 44.7399V56.0298ZM36 39.9241V56.0298H32V39.9241L34 37.5163L36 39.9241ZM40 23.3197L49.3776 12.0298H40V23.3197ZM36 12.0298V28.1354L34 30.5433L32 28.1354V12.0298H36ZM28 12.0298H18.6224L28 23.3197V12.0298ZM28 44.7399L18.6224 56.0298H28V44.7399ZM4 44.0298L4 12.0298C4 9.82065 5.79086 8.02979 8 8.02979L8 37.2014C8 39.0124 7.28058 40.7492 6 42.0298L4 44.0298ZM64 24.0298V56.0298C64 58.2389 62.2091 60.0298 60 60.0298V30.8582C60 29.0472 60.7194 27.3104 62 26.0298L64 24.0298Z" fill="url(#paint0_linear_448_1770)"/></g><defs><linearGradient id="paint0_linear_448_1770" x1="34" y1="0.0297849" x2="34" y2="68.0298" gradientUnits="userSpaceOnUse"><stop stop-color="#7438F3"/><stop offset="1" stop-color="#7438F3" stop-opacity="0"/></linearGradient><clipPath id="clip0_448_1770"><rect width="68" height="68" fill="white" transform="translate(0 0.0297852)"/></clipPath></defs></svg>
