<svg xmlns="http://www.w3.org/2000/svg" width="56.233" height="20" viewBox="0 0 56.233 20"><path fill="#eb5424" d="M 14.362 16.179 L 12.332 10 L 17.646 6.182 L 11.074 6.182 L 9.043 0 L 15.615 0 L 17.648 6.181 C 18.825 9.765 17.612 13.844 14.353 16.178 L 14.362 16.179 Z M 3.732 16.179 L 9.045 20 L 14.362 16.179 L 9.048 12.361 L 3.732 16.179 Z M 0.446 6.179 C -0.797 9.96 0.646 13.965 3.729 16.181 L 3.729 16.179 L 5.76 10 L 0.446 6.179 L 7.017 6.181 L 9.043 0 L 2.467 0 L 0.446 6.179 Z"/><path fill="#21264c" d="M 52.67 4.827 C 51.612 4.827 50.716 5.322 50.081 6.255 C 49.45 7.184 49.114 8.479 49.114 10 C 49.114 11.521 49.447 12.816 50.081 13.745 C 50.716 14.679 51.612 15.173 52.67 15.173 C 53.729 15.173 54.625 14.678 55.261 13.745 C 55.892 12.816 56.228 11.521 56.228 10 C 56.228 8.479 55.895 7.184 55.261 6.255 C 54.625 5.321 53.73 4.827 52.67 4.827 Z M 52.67 13.887 C 52.165 13.887 51.763 13.604 51.447 13.02 C 51.064 12.316 50.854 11.243 50.854 9.995 C 50.854 8.747 51.064 7.675 51.447 6.971 C 51.763 6.387 52.168 6.103 52.67 6.103 C 53.174 6.103 53.578 6.386 53.895 6.971 C 54.278 7.674 54.488 8.747 54.488 9.995 C 54.488 11.243 54.278 12.315 53.895 13.02 C 53.576 13.605 53.176 13.887 52.67 13.887 Z M 29.718 8.594 L 29.718 13.041 C 29.718 14.213 30.682 15.168 31.868 15.168 C 32.898 15.168 33.686 14.66 33.972 14.447 C 33.988 14.435 34.008 14.431 34.022 14.438 C 34.036 14.445 34.056 14.458 34.063 14.478 L 34.235 15.04 L 35.526 15.04 L 35.526 8.594 L 33.88 8.594 L 33.88 13.409 C 33.88 13.434 33.868 13.453 33.846 13.464 C 33.538 13.622 32.92 13.887 32.313 13.887 C 31.79 13.887 31.365 13.466 31.365 12.952 L 31.365 8.595 L 29.718 8.594 Z M 46.208 15.031 L 47.855 15.031 L 47.855 10.584 C 47.855 9.412 46.892 8.457 45.705 8.457 C 44.833 8.457 44.132 8.828 43.79 9.051 C 43.772 9.064 43.747 9.064 43.727 9.053 C 43.706 9.042 43.694 9.021 43.694 8.999 L 43.694 4.958 L 42.047 4.958 L 42.047 15.033 L 43.694 15.033 L 43.694 10.215 C 43.694 10.192 43.706 10.173 43.727 10.16 C 44.036 10.002 44.654 9.739 45.26 9.739 C 45.518 9.739 45.752 9.835 45.929 10.012 C 46.108 10.189 46.206 10.424 46.206 10.674 L 46.208 15.031 Z M 36.712 9.881 L 37.714 9.881 C 37.747 9.881 37.776 9.909 37.776 9.944 L 37.776 13.488 C 37.776 14.419 38.541 15.176 39.484 15.176 C 39.827 15.176 40.162 15.127 40.486 15.033 L 40.486 13.869 L 39.926 13.896 C 39.648 13.896 39.423 13.671 39.423 13.397 L 39.423 9.94 C 39.423 9.907 39.452 9.879 39.485 9.879 L 40.487 9.879 L 40.487 8.594 L 39.485 8.594 C 39.452 8.594 39.423 8.566 39.423 8.533 L 39.423 6.406 L 37.776 6.406 L 37.776 8.533 C 37.776 8.565 37.748 8.594 37.715 8.594 L 36.713 8.594 L 36.712 9.881 Z M 27.081 15.035 L 28.795 15.035 L 26.188 6.052 C 25.981 5.331 25.305 4.827 24.541 4.827 C 23.777 4.827 23.107 5.331 22.893 6.052 L 20.288 15.035 L 22.001 15.035 L 22.755 12.434 C 22.762 12.408 22.786 12.388 22.814 12.388 L 26.258 12.388 C 26.285 12.388 26.308 12.407 26.316 12.434 L 27.081 15.035 Z M 25.86 11.111 L 23.235 11.111 C 23.216 11.111 23.197 11.101 23.185 11.086 C 23.174 11.072 23.17 11.051 23.176 11.035 L 24.489 6.504 C 24.496 6.478 24.52 6.459 24.548 6.459 C 24.576 6.459 24.6 6.478 24.608 6.504 L 25.92 11.035 C 25.926 11.054 25.923 11.073 25.912 11.086 C 25.9 11.1 25.883 11.111 25.864 11.111 L 25.86 11.111 Z"/></svg>