<?xml version="1.0" encoding="utf-8"?><svg class="css-2dk2qc" viewBox="0 0 77.7 20" width="77.7px" height="20px" xmlns="http://www.w3.org/2000/svg"><g transform="matrix(0.077821, 0, 0, 0.077821, 0, 0)"><title>chakra</title><path fill="#2d3748" d="M 388.5 115.302 C 406.112 115.302 413.966 126.726 416.584 136.96 L 441.336 127.916 C 436.576 109.352 419.44 89.836 388.262 89.836 C 354.942 89.836 329 115.54 329 151.24 C 329 186.464 354.942 212.882 388.976 212.882 C 419.44 212.882 436.814 193.128 442.288 175.04 L 418.012 166.234 C 415.394 175.04 407.064 187.654 388.976 187.654 C 371.602 187.654 356.608 174.564 356.608 151.24 C 356.608 127.916 371.602 115.302 388.5 115.302 Z M 484.894 141.244 C 485.37 126.488 493.7 115.064 508.932 115.064 C 526.306 115.064 532.732 126.488 532.732 140.768 L 532.732 209.312 L 560.34 209.312 L 560.34 136.008 C 560.34 110.542 546.536 90.074 517.976 90.074 C 505.838 90.074 492.748 94.358 484.894 104.592 L 484.894 37 L 457.286 37 L 457.286 209.312 L 484.894 209.312 L 484.894 141.244 Z M 577.29 177.896 C 577.29 196.222 592.284 212.882 616.56 212.882 C 635.362 212.882 646.786 203.362 652.26 194.556 C 652.26 203.838 653.212 208.598 653.45 209.312 L 679.154 209.312 C 678.916 208.122 677.726 201.22 677.726 190.748 L 677.726 133.152 C 677.726 110.066 664.16 89.836 628.46 89.836 C 599.9 89.836 581.812 107.686 579.67 127.678 L 604.898 133.39 C 606.088 121.728 614.18 112.446 628.698 112.446 C 643.93 112.446 650.594 120.3 650.594 130.058 C 650.594 134.104 648.69 137.436 642.026 138.388 L 612.276 142.91 C 592.522 145.766 577.29 157.19 577.29 177.896 Z M 621.796 191.224 C 610.848 191.224 604.898 184.084 604.898 176.23 C 604.898 166.71 611.8 161.95 620.368 160.522 L 650.594 156 L 650.594 161.236 C 650.594 183.846 637.266 191.224 621.796 191.224 L 621.796 191.224 Z M 810.108 93.406 L 773.456 93.406 L 728.95 140.292 L 728.95 37 L 701.58 37 L 701.58 209.312 L 728.95 209.312 L 728.95 176.944 L 743.23 161.95 L 777.264 209.312 L 811.06 209.312 L 762.508 142.434 L 810.108 93.406 Z M 889.349 92.692 C 886.917 92.223 884.447 91.984 881.971 91.978 C 866.739 91.978 853.887 99.356 848.413 111.97 L 848.413 93.406 L 821.519 93.406 L 821.519 209.312 L 849.127 209.312 L 849.127 154.096 C 849.127 132.438 858.885 120.062 880.305 120.062 C 883.161 120.062 886.255 120.3 889.349 120.776 L 889.349 92.692 Z M 895.968 177.896 C 895.968 196.222 910.962 212.882 935.238 212.882 C 954.04 212.882 965.464 203.362 970.938 194.556 C 970.938 203.838 971.89 208.598 972.128 209.312 L 997.832 209.312 C 997.594 208.122 996.404 201.22 996.404 190.748 L 996.404 133.152 C 996.404 110.066 982.838 89.836 947.138 89.836 C 918.578 89.836 900.49 107.686 898.348 127.678 L 923.576 133.39 C 924.766 121.728 932.858 112.446 947.376 112.446 C 962.608 112.446 969.272 120.3 969.272 130.058 C 969.272 134.104 967.368 137.436 960.704 138.388 L 930.954 142.91 C 911.2 145.766 895.968 157.19 895.968 177.896 Z M 940.474 191.224 C 929.526 191.224 923.576 184.084 923.576 176.23 C 923.576 166.71 930.478 161.95 939.046 160.522 L 969.272 156 L 969.272 161.236 C 969.272 183.846 955.944 191.224 940.474 191.224 L 940.474 191.224 Z"><title>text</title></path><rect width="257" height="257" fill="url(#a)" rx="128.5" style="fill:url(#a)"/><path fill="#fff" d="M 69.558 133.985 L 157.15 46.995 C 158.786 45.371 161.42 47.348 160.315 49.373 L 127.714 109.125 C 126.986 110.457 127.951 112.083 129.469 112.083 L 185.809 112.083 C 187.624 112.083 188.5 114.306 187.173 115.545 L 88.445 207.687 C 86.675 209.339 84.04 207.011 85.461 205.051 L 132.197 140.578 C 133.155 139.256 132.211 137.404 130.578 137.404 L 70.968 137.404 C 69.182 137.404 68.291 135.243 69.558 133.985 Z"><title>zap</title></path></g><defs><linearGradient id="a" x1="128.5" x2="128.5" y2="257" gradientUnits="userSpaceOnUse" gradientTransform="matrix(1, 0, 0, 1, 0, 0)"><stop stop-color="#7BCBD400"/><stop offset="1" stop-color="#29C6B700"/></linearGradient></defs></svg>
