<?xml version="1.0" encoding="utf-8"?><svg width="42px" height="20px" fill="#99424f" viewBox="0 0 42 20" xmlns="http://www.w3.org/2000/svg"><path d="M 17.635 9.851 C 17.633 8.672 16.836 7.643 15.695 7.344 L 18.185 0 L 5.843 0 L 8.34 7.367 C 7.232 7.689 6.469 8.704 6.469 9.858 C 6.469 10.726 6.903 11.496 7.568 11.968 C 7.307 12.338 7.006 12.68 6.665 13.004 C 6.022 13.607 5.309 14.07 4.539 14.377 C 3.844 13.908 3.543 13.08 3.815 12.338 C 4.87 12.014 5.645 11.019 5.645 9.859 C 5.643 8.43 4.485 7.272 3.056 7.27 C 1.624 7.271 0.463 8.432 0.461 9.864 C 0.461 10.571 0.751 11.22 1.214 11.683 L 1.092 11.932 C 0.704 12.731 0.264 13.634 0.096 14.649 C -0.24 16.671 0.31 18.303 1.637 19.224 C 2.384 19.739 3.206 20 4.092 20 C 5.616 20 7.162 19.235 8.656 18.494 C 9.721 17.967 10.822 17.417 11.909 17.151 C 12.304 17.052 12.726 16.994 13.166 16.931 C 14.059 16.799 14.979 16.67 15.807 16.19 C 16.774 15.628 17.434 14.69 17.626 13.613 C 17.771 12.785 17.626 11.951 17.255 11.221 C 17.511 10.809 17.645 10.334 17.643 9.849 L 17.635 9.851 Z M 16.505 9.851 C 16.505 10.656 15.846 11.311 15.046 11.311 C 13.931 11.3 13.235 10.101 13.778 9.127 C 13.824 9.046 13.882 8.965 13.94 8.896 C 14.001 8.825 14.069 8.761 14.143 8.704 L 14.149 8.699 C 14.195 8.664 14.247 8.629 14.299 8.595 C 14.328 8.577 14.352 8.559 14.374 8.548 C 14.38 8.548 14.386 8.543 14.392 8.543 C 14.415 8.531 14.445 8.519 14.473 8.507 C 14.501 8.496 14.531 8.484 14.554 8.472 C 14.559 8.472 14.565 8.467 14.571 8.467 C 14.594 8.461 14.617 8.449 14.641 8.443 C 14.646 8.443 14.658 8.438 14.664 8.438 L 14.745 8.42 L 14.751 8.42 L 14.838 8.402 C 14.843 8.402 14.855 8.402 14.861 8.397 C 14.884 8.397 14.907 8.391 14.93 8.391 L 14.959 8.391 C 14.988 8.391 15.017 8.385 15.047 8.385 L 15.122 8.385 C 15.143 8.384 15.165 8.386 15.186 8.391 L 15.197 8.391 C 15.244 8.396 15.29 8.404 15.336 8.414 C 16.014 8.56 16.498 9.158 16.5 9.851 L 16.505 9.851 Z M 7.459 1.158 L 16.569 1.158 L 14.478 7.326 C 14.391 7.344 14.305 7.372 14.218 7.401 L 12.017 2.917 L 9.81 7.373 C 9.723 7.344 9.631 7.327 9.538 7.31 L 7.459 1.158 Z M 11.6 9.348 C 11.494 8.813 11.22 8.326 10.818 7.958 L 12.017 5.537 L 13.227 8.009 C 12.868 8.369 12.611 8.826 12.503 9.347 L 11.6 9.348 Z M 8.699 8.432 L 8.78 8.415 L 8.797 8.415 C 8.821 8.409 8.843 8.409 8.867 8.403 L 8.89 8.403 C 8.913 8.403 8.93 8.398 8.954 8.398 L 9.18 8.398 C 9.203 8.398 9.22 8.403 9.238 8.403 C 9.249 8.403 9.255 8.403 9.267 8.409 C 9.29 8.415 9.307 8.415 9.33 8.42 C 9.336 8.42 9.342 8.42 9.354 8.426 L 9.435 8.444 C 9.461 8.448 9.486 8.456 9.51 8.467 C 9.516 8.467 9.521 8.473 9.533 8.473 C 9.551 8.478 9.574 8.484 9.591 8.496 C 9.597 8.496 9.603 8.502 9.609 8.502 C 9.632 8.513 9.655 8.519 9.678 8.531 L 9.684 8.531 C 9.711 8.541 9.736 8.554 9.759 8.571 C 9.788 8.583 9.812 8.6 9.834 8.612 C 9.84 8.612 9.84 8.617 9.845 8.617 C 9.869 8.629 9.886 8.646 9.909 8.658 L 9.915 8.664 C 9.983 8.717 10.049 8.773 10.112 8.831 L 10.117 8.837 C 10.178 8.902 10.232 8.971 10.28 9.046 C 10.435 9.283 10.518 9.561 10.517 9.845 C 10.517 10.649 9.858 11.304 9.057 11.304 C 8.253 11.3 7.603 10.649 7.598 9.845 C 7.592 9.168 8.061 8.594 8.698 8.432 L 8.699 8.432 Z M 3 8.392 C 3.804 8.392 4.459 9.051 4.459 9.851 C 4.455 10.655 3.804 11.306 3 11.311 C 2.196 11.306 1.545 10.655 1.54 9.851 C 1.545 9.047 2.196 8.397 3 8.392 Z M 16.47 13.414 C 16.338 14.155 15.886 14.804 15.213 15.191 C 14.582 15.556 13.806 15.672 12.989 15.788 C 12.543 15.852 12.073 15.921 11.626 16.031 C 10.421 16.327 9.263 16.91 8.14 17.462 C 6.703 18.174 5.348 18.846 4.095 18.846 C 3.436 18.846 2.855 18.661 2.3 18.273 C 1.019 17.388 1.083 15.741 1.238 14.838 C 1.376 13.993 1.765 13.199 2.135 12.44 C 2.159 12.394 2.176 12.353 2.199 12.307 C 2.329 12.353 2.463 12.388 2.599 12.411 C 2.379 13.639 3.004 14.907 4.226 15.533 L 4.445 15.648 L 4.683 15.561 C 5.696 15.202 6.635 14.617 7.463 13.835 C 7.921 13.409 8.325 12.928 8.668 12.405 C 8.798 12.426 8.931 12.436 9.063 12.434 C 10.242 12.431 11.272 11.635 11.571 10.494 L 12.544 10.494 C 12.834 11.612 13.847 12.434 15.051 12.434 C 15.512 12.434 15.964 12.31 16.36 12.075 C 16.511 12.509 16.557 12.961 16.476 13.412 L 16.47 13.414 Z M 25.752 12.782 C 25.673 13.048 25.536 13.293 25.352 13.501 C 25.166 13.709 24.918 13.877 24.605 14.004 C 24.292 14.132 23.91 14.196 23.452 14.196 C 22.687 14.196 22.097 13.993 21.686 13.593 C 21.274 13.193 21.07 12.597 21.07 11.822 L 21.07 11.321 L 22.163 11.321 L 22.163 11.673 C 22.161 11.894 22.18 12.115 22.221 12.332 C 22.262 12.534 22.326 12.703 22.424 12.848 C 22.524 12.995 22.662 13.113 22.823 13.189 C 22.997 13.27 23.217 13.311 23.484 13.311 C 23.982 13.311 24.319 13.178 24.514 12.916 C 24.7 12.649 24.798 12.29 24.798 11.838 L 24.798 5.809 L 25.887 5.809 L 25.887 11.972 C 25.883 12.247 25.839 12.52 25.755 12.782 L 25.752 12.782 Z M 31.712 13.633 C 31.266 13.969 30.71 14.137 30.033 14.137 C 29.558 14.137 29.146 14.063 28.799 13.906 C 28.46 13.762 28.159 13.542 27.919 13.263 C 27.681 12.985 27.501 12.661 27.386 12.272 C 27.264 11.89 27.201 11.473 27.184 11.021 C 27.184 10.569 27.253 10.158 27.392 9.782 C 27.521 9.421 27.718 9.089 27.971 8.803 C 28.217 8.527 28.519 8.308 28.857 8.16 C 29.199 8.01 29.57 7.929 29.975 7.929 C 30.503 7.929 30.943 8.038 31.294 8.258 C 31.646 8.478 31.92 8.756 32.13 9.092 C 32.338 9.43 32.485 9.803 32.564 10.193 C 32.641 10.566 32.674 10.947 32.662 11.328 L 28.222 11.328 C 28.215 11.578 28.245 11.827 28.31 12.069 C 28.375 12.3 28.489 12.508 28.646 12.684 C 28.797 12.864 28.998 13.009 29.231 13.113 C 29.468 13.223 29.746 13.276 30.066 13.276 C 30.477 13.276 30.819 13.177 31.086 12.985 C 31.353 12.794 31.525 12.505 31.607 12.106 L 32.574 12.106 C 32.441 12.783 32.157 13.288 31.711 13.624 L 31.712 13.633 Z M 31.474 9.822 C 31.387 9.614 31.266 9.439 31.121 9.289 C 30.97 9.138 30.791 9.018 30.594 8.936 C 30.392 8.849 30.165 8.802 29.922 8.802 C 29.667 8.802 29.442 8.849 29.239 8.936 C 29.035 9.023 28.862 9.144 28.717 9.295 C 28.57 9.451 28.451 9.631 28.366 9.828 C 28.275 10.031 28.232 10.245 28.215 10.477 L 31.626 10.477 C 31.611 10.251 31.558 10.03 31.47 9.822 L 31.474 9.822 Z M 34.422 12.679 C 34.511 12.825 34.635 12.946 34.781 13.033 C 34.938 13.122 35.108 13.187 35.285 13.224 C 35.471 13.265 35.668 13.282 35.864 13.282 C 36.025 13.282 36.185 13.27 36.345 13.247 C 36.504 13.228 36.661 13.185 36.808 13.12 C 36.947 13.056 37.069 12.969 37.16 12.847 C 37.248 12.732 37.299 12.575 37.299 12.395 C 37.299 12.141 37.2 11.95 37.008 11.822 C 36.817 11.695 36.58 11.585 36.29 11.503 L 35.352 11.284 C 35.016 11.22 34.703 11.127 34.414 11.006 C 34.138 10.899 33.892 10.728 33.695 10.508 C 33.505 10.294 33.405 9.992 33.405 9.61 C 33.405 9.309 33.475 9.054 33.608 8.84 C 33.738 8.629 33.914 8.451 34.123 8.318 C 34.332 8.185 34.569 8.087 34.835 8.017 C 35.093 7.954 35.358 7.921 35.623 7.919 C 35.936 7.917 36.248 7.946 36.555 8.006 C 36.838 8.064 37.088 8.162 37.308 8.307 C 37.528 8.446 37.702 8.643 37.83 8.88 C 37.961 9.123 38.038 9.425 38.061 9.784 L 37.083 9.784 C 37.065 9.592 37.019 9.432 36.932 9.309 C 36.846 9.185 36.736 9.081 36.607 9.002 C 36.476 8.927 36.335 8.869 36.179 8.834 C 36.023 8.799 35.86 8.781 35.704 8.781 C 35.557 8.781 35.41 8.793 35.264 8.816 C 35.124 8.837 34.987 8.878 34.859 8.938 C 34.742 8.992 34.639 9.071 34.558 9.17 C 34.483 9.268 34.442 9.389 34.442 9.54 C 34.442 9.708 34.5 9.847 34.621 9.958 C 34.737 10.068 34.894 10.16 35.073 10.236 C 35.259 10.31 35.461 10.369 35.689 10.421 L 36.378 10.578 C 36.621 10.631 36.86 10.697 37.096 10.775 C 37.316 10.844 37.524 10.948 37.712 11.081 C 37.89 11.206 38.038 11.368 38.146 11.556 C 38.256 11.747 38.314 11.985 38.314 12.268 C 38.314 12.628 38.239 12.929 38.088 13.166 C 37.94 13.4 37.74 13.596 37.503 13.739 C 37.26 13.884 36.987 13.988 36.686 14.046 C 36.388 14.104 36.086 14.133 35.783 14.133 C 35.465 14.134 35.149 14.099 34.839 14.029 C 34.555 13.968 34.285 13.852 34.045 13.688 C 33.814 13.531 33.634 13.323 33.495 13.072 C 33.356 12.821 33.281 12.501 33.263 12.134 L 34.242 12.134 C 34.271 12.354 34.323 12.539 34.416 12.684 L 34.422 12.679 Z M 41.957 8.074 L 41.957 8.937 L 40.775 8.937 L 40.775 12.626 C 40.775 12.741 40.787 12.834 40.805 12.904 C 40.822 12.973 40.863 13.025 40.914 13.066 C 40.966 13.107 41.046 13.13 41.14 13.141 C 41.234 13.152 41.36 13.159 41.511 13.159 L 41.957 13.159 L 41.957 14.022 L 41.209 14.022 C 40.954 14.022 40.74 14.004 40.561 13.969 C 40.381 13.934 40.236 13.87 40.126 13.778 C 40.016 13.685 39.935 13.558 39.877 13.389 C 39.825 13.222 39.796 13.001 39.796 12.723 L 39.796 8.943 L 38.783 8.943 L 38.783 8.08 L 39.796 8.08 L 39.796 6.296 L 40.775 6.296 L 40.775 8.074 L 41.957 8.074 Z"/></svg>
