<svg xmlns="http://www.w3.org/2000/svg" width="62.9" height="20" preserveAspectRatio="xMidYMid meet" version="1.0" viewBox="0 0 62.9 20"><g fill="#000" stroke="none" transform="matrix(0.011095, 0, 0, -0.011095, 23.88905, 15.114613)"><title>motion</title><path d="M 10 440 L 10 20 L 110 20 L 210 20 L 211 238 L 211 455 L 273 333 L 335 210 L 420 210 L 505 210 L 567 333 L 629 455 L 629 238 L 630 20 L 730 20 L 830 20 L 830 440 L 830 861 L 734 858 L 639 855 L 532 633 C 473 511 423 411 420 410 C 417 410 367 510 308 633 L 202 855 L 106 858 L 10 861 L 10 440 Z"><title>m</title></path><path d="M 1079 642 C 1007 613 963 573 933 512 C 910 465 905 439 902 359 C 895 197 937 102 1041 45 C 1086 21 1109 15 1181 12 C 1302 6 1367 26 1429 88 C 1493 152 1510 205 1510 335 C 1510 494 1471 573 1366 627 C 1297 663 1150 670 1079 642 Z M 1281 472 C 1308 448 1313 436 1317 378 C 1329 230 1297 170 1208 170 C 1167 170 1154 175 1129 199 C 1101 228 1100 231 1100 335 C 1100 439 1101 442 1129 471 C 1170 512 1236 512 1281 472 Z"><title>o</title></path><path d="M 1600 735 L 1600 650 L 1560 650 L 1520 650 L 1520 570 L 1520 490 L 1559 490 L 1598 490 L 1602 312 C 1605 145 1606 133 1629 96 C 1664 40 1714 20 1823 20 L 1910 20 L 1910 100 L 1910 180 L 1871 180 C 1805 180 1800 192 1800 351 L 1800 490 L 1860 490 L 1920 490 L 1920 570 L 1920 650 L 1860 650 L 1800 650 L 1800 735 L 1800 820 L 1700 820 L 1600 820 L 1600 735 Z"><title>t</title></path><path d="M 1980 335 L 1980 20 L 2080 20 L 2180 20 L 2180 335 L 2180 650 L 2080 650 L 1980 650 L 1980 335 Z"><title>i</title></path><path d="M2007 886 c-34 -32 -44 -84 -23 -124 20 -39 44 -52 96 -52 76 0 109 31 110 102 0 40 -4 50 -31 72 -42 36 -115 37 -152 2z"><title>.</title></path><path d="M2428 643 c-64 -21 -126 -76 -154 -137 -21 -45 -24 -66 -24 -171 0 -105 3 -126 24 -171 29 -62 92 -118 158 -140 71 -23 217 -16 274 14 56 29 103 77 128 132 28 62 30 251 3 322 -25 64 -100 132 -168 152 -67 20 -180 20 -241 -1z m199 -167 c28 -24 28 -25 28 -141 0 -116 0 -117 -28 -141 -31 -26 -101 -33 -139 -13 -31 17 -48 71 -48 153 0 124 28 165 112 166 35 0 54 -6 75 -24z"><title>o</title></path><path d="M3184 641 c-23 -10 -49 -29 -58 -42 l-16 -23 0 37 0 37 -95 0 -95 0 0 -315 0 -315 100 0 100 0 0 204 c0 202 0 205 24 233 20 23 32 28 71 28 37 0 51 -5 66 -24 17 -21 19 -41 19 -232 l0 -209 106 0 106 0 -4 238 c-4 253 -10 285 -61 341 -55 60 -180 80 -263 42z"><title>n</title></path></g><g transform="matrix(1.700825, 0, 0, 1.700825, -7.538056, 0)"><title>logo</title><path d="M 4.432 5.879 L 4.432 11.759 L 5.909 10.282 L 7.386 8.804 L 8.864 10.282 L 10.341 11.759 L 11.818 10.282 L 13.295 8.804 L 14.773 10.282 L 16.25 11.759 L 16.25 5.879 L 16.25 0 L 13.295 2.955 L 10.341 5.909 L 7.386 2.955 L 4.432 0 L 4.432 5.879 Z"/></g></svg>