<?xml version="1.0" encoding="utf-8"?><svg width="31.5px" height="20px" viewBox="0 0 31.5 20" xmlns="http://www.w3.org/2000/svg"><path d="M 21.65 0 C 21.49 0 21.344 0.128 21.344 0.306 L 21.344 5.892 L 20.077 5.153 C 19.998 5.107 19.909 5.084 19.819 5.084 C 19.73 5.084 19.641 5.107 19.561 5.153 L 16.518 6.928 C 16.36 7.02 16.262 7.189 16.262 7.371 L 16.262 10.924 C 16.262 11.107 16.36 11.275 16.518 11.367 L 19.561 13.141 C 19.641 13.188 19.73 13.211 19.819 13.211 C 19.909 13.211 19.998 13.188 20.077 13.141 L 23.121 11.367 C 23.279 11.275 23.377 11.106 23.377 10.924 L 23.377 9.147 L 23.377 7.371 L 23.377 1.251 C 23.377 1.07 23.28 0.903 23.125 0.812 L 21.8 0.042 C 21.751 0.013 21.7 0 21.65 0 Z M 11.688 5.084 C 11.599 5.084 11.51 5.107 11.43 5.153 L 8.387 6.928 C 8.229 7.02 8.131 7.189 8.131 7.371 L 8.131 10.924 C 8.131 11.107 8.229 11.275 8.387 11.367 L 11.43 13.141 C 11.59 13.234 11.787 13.234 11.946 13.141 L 14.99 11.367 C 15.148 11.275 15.246 11.106 15.246 10.924 L 15.246 7.371 C 15.246 7.188 15.148 7.02 14.99 6.928 L 11.946 5.153 C 11.867 5.107 11.778 5.084 11.688 5.084 Z M 27.95 5.084 C 27.861 5.084 27.772 5.107 27.692 5.153 L 24.649 6.928 C 24.491 7.02 24.393 7.189 24.393 7.371 L 24.393 10.924 C 24.393 11.107 24.491 11.275 24.649 11.367 L 27.601 13.151 C 27.76 13.248 27.959 13.249 28.119 13.155 L 29.57 12.312 C 29.721 12.225 29.722 12.007 29.57 11.919 L 26.426 10.067 L 26.426 8.242 L 27.95 7.355 L 29.475 8.242 L 29.475 9.513 C 29.475 9.682 29.618 9.709 29.713 9.652 C 30.097 9.426 31.256 8.754 31.256 8.754 C 31.411 8.664 31.508 8.497 31.508 8.316 L 31.508 7.371 C 31.508 7.188 31.41 7.02 31.252 6.928 L 28.208 5.153 C 28.128 5.107 28.04 5.084 27.95 5.084 Z M 3.557 5.086 C 3.468 5.086 3.379 5.109 3.299 5.155 L 0.256 6.928 C 0.098 7.021 0 7.19 0 7.373 L 0 11.909 C 0 12.13 0.24 12.268 0.431 12.157 L 1.781 11.371 C 1.936 11.279 2.033 11.113 2.033 10.932 L 2.033 8.246 L 3.557 7.357 L 5.082 8.246 L 5.082 10.932 C 5.082 11.113 5.178 11.279 5.334 11.371 L 6.684 12.157 C 6.875 12.269 7.115 12.13 7.115 11.909 L 7.115 7.373 C 7.115 7.19 7.017 7.021 6.859 6.928 L 3.815 5.155 C 3.736 5.109 3.647 5.086 3.557 5.086 Z M 19.819 7.355 L 21.344 8.244 L 21.344 9.147 L 21.344 10.051 L 19.819 10.94 L 18.295 10.051 L 18.295 8.244 L 19.819 7.355 Z M 27.95 8.135 L 27.079 8.643 L 27.079 9.658 L 27.95 10.164 L 28.822 9.658 L 28.822 8.643 L 27.95 8.135 Z M 15.659 12.195 C 15.554 12.195 15.448 12.22 15.357 12.272 L 12.498 13.924 C 12.31 14.027 12.197 14.231 12.197 14.444 L 12.197 17.743 C 12.197 17.955 12.315 18.155 12.498 18.263 L 13.251 18.692 C 13.611 18.87 13.744 18.87 13.908 18.87 C 14.446 18.87 14.753 18.548 14.753 17.979 L 14.753 14.72 C 14.753 14.67 14.715 14.634 14.67 14.634 L 14.309 14.634 C 14.259 14.634 14.223 14.675 14.223 14.72 L 14.223 17.979 C 14.223 18.226 13.962 18.479 13.536 18.267 L 12.754 17.816 C 12.729 17.801 12.711 17.77 12.711 17.741 L 12.711 14.442 C 12.711 14.412 12.725 14.378 12.754 14.362 L 15.613 12.715 C 15.643 12.699 15.678 12.699 15.702 12.715 L 18.563 14.362 C 18.592 14.378 18.606 14.407 18.606 14.442 L 18.606 17.741 C 18.606 17.776 18.587 17.805 18.563 17.82 L 15.702 19.474 C 15.677 19.489 15.637 19.489 15.613 19.474 L 14.882 19.039 C 14.863 19.029 14.832 19.023 14.813 19.033 C 14.611 19.152 14.57 19.168 14.382 19.232 C 14.332 19.247 14.265 19.278 14.408 19.357 L 15.357 19.921 C 15.451 19.97 15.555 20 15.659 20 C 15.767 20 15.873 19.97 15.956 19.917 L 18.815 18.263 C 19.003 18.159 19.117 17.955 19.117 17.743 L 19.117 14.444 C 19.117 14.231 18.998 14.032 18.815 13.924 L 15.956 12.272 C 15.867 12.22 15.763 12.195 15.659 12.195 Z M 20.117 13.717 C 19.825 13.717 19.569 13.953 19.569 14.265 C 19.569 14.567 19.815 14.815 20.117 14.815 C 20.419 14.815 20.665 14.567 20.665 14.265 C 20.665 13.953 20.414 13.712 20.117 13.717 Z M 20.111 13.804 C 20.369 13.804 20.578 14.008 20.578 14.265 C 20.578 14.517 20.368 14.725 20.111 14.732 C 19.858 14.732 19.653 14.522 19.653 14.265 C 19.653 14.008 19.859 13.804 20.111 13.804 Z M 19.911 13.953 L 19.911 14.571 L 20.028 14.571 L 20.028 14.325 L 20.137 14.325 C 20.182 14.325 20.192 14.344 20.202 14.378 C 20.202 14.383 20.221 14.543 20.226 14.573 L 20.353 14.573 C 20.339 14.543 20.329 14.459 20.324 14.408 C 20.309 14.329 20.305 14.274 20.22 14.269 C 20.265 14.254 20.339 14.23 20.339 14.116 C 20.339 13.952 20.197 13.953 20.123 13.953 L 19.911 13.953 Z M 20.028 14.053 L 20.127 14.053 C 20.158 14.053 20.216 14.052 20.216 14.136 C 20.216 14.171 20.201 14.226 20.121 14.225 L 20.028 14.225 L 20.028 14.053 Z M 16.425 14.557 C 15.609 14.557 15.125 14.905 15.125 15.478 C 15.125 16.106 15.609 16.274 16.391 16.353 C 17.326 16.447 17.4 16.581 17.4 16.764 C 17.4 17.085 17.142 17.219 16.538 17.219 C 15.781 17.219 15.614 17.031 15.559 16.655 C 15.554 16.615 15.519 16.586 15.474 16.586 L 15.103 16.586 C 15.058 16.586 15.019 16.621 15.019 16.671 C 15.019 17.151 15.281 17.725 16.532 17.725 C 17.45 17.724 17.969 17.368 17.969 16.744 C 17.969 16.126 17.553 15.962 16.673 15.843 C 15.783 15.724 15.694 15.664 15.694 15.456 C 15.694 15.283 15.767 15.057 16.425 15.057 C 17.013 15.057 17.233 15.186 17.322 15.581 C 17.332 15.621 17.36 15.645 17.4 15.645 L 17.771 15.645 C 17.795 15.645 17.816 15.635 17.83 15.621 C 17.846 15.602 17.855 15.582 17.85 15.557 C 17.791 14.874 17.341 14.557 16.425 14.557 Z"/></svg>
