<svg xmlns="http://www.w3.org/2000/svg" xmlns:bx="https://boxy-svg.com" width="60.2" height="20" fill-rule="evenodd" viewBox="-0.5 -0.5 60.2 20"><g fill="none" transform="matrix(0.040572, 0, 0, 0.039932, -0.025152, -0.00791)" bx:origin="1.367116 0.500002"><circle cx="269.529" cy="237.628" r="50.167" fill="#00d8ff"/><g stroke="#00d8ff" stroke-width="24"><path d="M269.53 135.628c67.356 0 129.928 9.665 177.107 25.907 56.844 19.57 91.794 49.233 91.794 76.093 0 27.99-37.04 59.503-98.083 79.728-46.15 15.29-106.88 23.272-170.818 23.272-65.554 0-127.63-7.492-174.3-23.44-59.046-20.182-94.61-52.103-94.61-79.56 0-26.642 33.37-56.076 89.415-75.616 47.355-16.51 111.472-26.384 179.486-26.384z"/><path d="M180.736 186.922c33.65-58.348 73.28-107.724 110.92-140.48C337.006 6.976 380.163-8.48 403.43 4.937c24.248 13.983 33.042 61.814 20.067 124.796-9.8 47.618-33.234 104.212-65.176 159.6-32.75 56.788-70.25 106.82-107.377 139.272-46.98 41.068-92.4 55.93-116.185 42.213-23.08-13.3-31.906-56.92-20.834-115.233 9.355-49.27 32.832-109.745 66.8-168.664z"/><path d="M180.82 289.482C147.075 231.2 124.1 172.195 114.51 123.227c-11.544-59-3.382-104.11 19.864-117.566 24.224-14.024 70.055 2.244 118.14 44.94 36.356 32.28 73.688 80.837 105.723 136.173 32.844 56.733 57.46 114.21 67.036 162.582 12.117 61.213 2.31 107.984-21.453 121.74-23.057 13.348-65.25-.784-110.24-39.5-38.013-32.71-78.682-83.253-112.76-142.115z"/></g></g><path fill="#00d8ff" d="M 33.504 14.602 L 31.008 10.89 C 32.271 10.783 33.407 9.881 33.407 8.238 C 33.407 6.566 32.2 5.497 30.51 5.497 L 26.798 5.497 L 26.798 14.593 L 27.947 14.593 L 27.947 10.978 L 29.789 10.978 L 32.145 14.593 L 33.504 14.602 Z M 30.373 9.99 L 27.948 9.99 L 27.948 6.512 L 30.373 6.512 C 31.469 6.512 32.216 7.222 32.216 8.245 C 32.216 9.268 31.468 9.991 30.373 9.991 L 30.373 9.99 Z M 37.785 14.763 C 38.88 14.763 39.78 14.41 40.445 13.754 L 39.947 13.085 C 39.419 13.617 38.643 13.919 37.882 13.919 C 36.442 13.919 35.556 12.881 35.471 11.64 L 40.887 11.64 L 40.887 11.381 C 40.887 9.404 39.696 7.849 37.673 7.849 C 35.763 7.849 34.377 9.39 34.377 11.299 C 34.377 13.359 35.804 14.757 37.785 14.757 L 37.785 14.763 Z M 39.866 10.889 L 35.471 10.889 C 35.527 9.881 36.233 8.693 37.661 8.693 C 39.185 8.693 39.85 9.909 39.866 10.889 Z M 47.79 14.601 L 47.79 10.071 C 47.79 8.476 46.614 7.848 45.198 7.848 C 44.104 7.848 43.246 8.202 42.525 8.94 L 43.011 9.648 C 43.606 9.021 44.256 8.734 45.061 8.734 C 46.031 8.734 46.752 9.239 46.752 10.125 L 46.752 11.314 C 46.212 10.698 45.448 10.411 44.534 10.411 C 43.399 10.411 42.194 11.107 42.194 12.58 C 42.194 14.014 43.398 14.762 44.534 14.762 C 45.435 14.762 46.198 14.451 46.752 13.848 L 46.752 14.6 L 47.79 14.601 Z M 44.909 14.026 C 43.94 14.026 43.259 13.426 43.259 12.594 C 43.259 11.751 43.94 11.148 44.909 11.148 C 45.644 11.148 46.351 11.421 46.752 11.967 L 46.752 13.208 C 46.351 13.753 45.644 14.027 44.909 14.027 L 44.909 14.026 Z M 52.815 14.763 C 54.034 14.763 54.755 14.272 55.268 13.617 L 54.575 12.99 C 54.132 13.577 53.562 13.849 52.877 13.849 C 51.45 13.849 50.563 12.76 50.563 11.299 C 50.563 9.84 51.451 8.763 52.877 8.763 C 53.568 8.763 54.138 9.022 54.575 9.624 L 55.268 8.997 C 54.755 8.34 54.034 7.849 52.815 7.849 C 50.819 7.849 49.473 9.35 49.473 11.299 C 49.473 13.263 50.819 14.758 52.815 14.758 L 52.815 14.763 Z M 58.413 14.763 C 59.022 14.763 59.397 14.585 59.661 14.34 L 59.356 13.577 C 59.217 13.729 58.946 13.849 58.65 13.849 C 58.193 13.849 57.969 13.495 57.969 13.006 L 57.969 8.912 L 59.331 8.912 L 59.331 8.012 L 57.969 8.012 L 57.969 6.212 L 56.93 6.212 L 56.93 8.012 L 55.823 8.012 L 55.823 8.913 L 56.93 8.913 L 56.93 13.222 C 56.93 14.204 57.429 14.764 58.413 14.764 L 58.413 14.763 Z" bx:origin="0.092296 0.431984"/></svg>