<svg xmlns="http://www.w3.org/2000/svg" width="44.6" height="20" viewBox="0 0 44.6 20"><g><title>Yarn</title><g fill="#2c8ebb" transform="matrix(0.445871, 0, 0, 0.445871, -4.45871, -3.376135)"><title>text</title><path d="M72.227 29.896c-.693 2.4-1.8 4.122-3.048 5.507V23.246c0-.83-.727-1.524-1.87-1.524-.485 0-.9.242-.9.59 0 .242.14.45.14 1.108v5.577c-.416 2.425-1.455 4.676-2.84 4.676-1.005 0-1.593-1.005-1.593-2.875 0-2.9.38-4.434 1.005-6.997.14-.52 1.143-1.905-.554-1.905-1.836 0-1.593.693-1.836 1.282 0 0-1.16 4.122-1.16 7.794 0 3.014 1.264 4.988 3.585 4.988 1.49 0 2.563-1.005 3.395-2.4v4.4c-2.286 2.01-4.295 3.776-4.295 7.274 0 2.217 1.386 3.983 3.325 3.983 1.767 0 3.602-1.282 3.602-4.92v-5.992c1.87-1.628 3.88-3.672 5.057-7.7.035-.14.035-.312.035-.346 0-.658-.658-1.42-1.212-1.42-.346 0-.623.312-.83 1.04zm-6.65 17.146c-.554 0-.9-.83-.9-1.905 0-2.078.762-3.395 1.87-4.538v3.706c0 .658.14 2.736-.97 2.736z"><title>y</title></path><path d="M82.168 33.637c-.83 0-1.178-.83-1.178-1.593v-5.715c0-.83-.727-1.524-1.87-1.524-.485 0-.9.242-.9.59 0 .242.14.45.14 1.108v5.334c-.38.97-1.005 1.8-1.94 1.8-1.212 0-1.974-1.04-1.974-2.84 0-4.988 3.083-7.24 5.715-7.24.346 0 .693.07 1.005.07.346 0 .45-.208.45-.797 0-.9-.658-1.455-1.593-1.455-4.226 0-8.244 3.533-8.244 9.318 0 2.944 1.42 5.23 4.122 5.23 1.316 0 2.286-.623 2.98-1.42.52.83 1.455 1.42 2.667 1.42 2.98 0 4.364-3.117 4.953-5.404.035-.14.035-.208.035-.242 0-.658-.658-1.42-1.212-1.42-.346 0-.693.312-.83 1.04-.312 1.524-.935 3.74-2.32 3.74z"><title>a</title></path><path d="M92.18 35.923c2.98 0 4.33-3.117 4.953-5.404 0-.07.035-.14.035-.242 0-.658-.658-1.42-1.212-1.42-.346 0-.693.312-.83 1.04-.312 1.524-.9 3.74-2.494 3.74-.935 0-1.386-.9-1.386-1.87 0-3.464 1.56-7.55 1.56-7.967.14-.797-1.247-1.94-1.663-1.94h-1.8c-.346 0-.693 0-1.836-.14-.38-1.42-1.35-1.836-2.182-1.836-.9 0-1.732.623-1.732 1.593 0 1.005.623 1.732 1.49 2.217-.035 1.767-.173 4.64-.554 6.027-.312 1.178 1.49 2.425 1.94.97.623-2.01.83-5.023.866-6.373h3.014c-1.108 2.98-1.732 5.438-1.732 7.655 0 3.048 1.94 3.95 3.568 3.95z"><title>r</title></path><path d="M 95.26 34.4 C 95.26 35.682 96.23 35.924 96.923 35.924 C 97.928 35.924 97.893 35.094 97.893 34.434 L 97.893 29.377 C 98.135 26.641 100.293 23.662 101.288 23.662 C 101.946 23.662 102.015 24.562 102.015 25.636 L 102.015 32.668 C 102.015 34.435 103.089 35.924 104.915 35.924 C 107.895 35.924 109.365 32.807 109.955 30.52 C 109.99 30.38 109.99 30.312 109.99 30.278 C 109.99 29.62 109.332 28.858 108.778 28.858 C 108.432 28.858 108.085 29.17 107.948 29.898 C 107.636 31.422 106.926 33.638 105.541 33.638 C 104.641 33.638 104.641 32.356 104.641 32.045 L 104.641 24.875 C 104.641 23.282 104.087 21.377 101.766 21.377 C 100.069 21.377 98.822 22.867 97.886 24.807 L 97.886 23.247 C 97.886 22.417 97.159 21.723 96.016 21.723 C 95.531 21.723 95.116 21.965 95.116 22.313 C 95.116 22.555 95.256 22.763 95.256 23.421 L 95.26 34.4 Z"><title>n</title></path></g><g><title>logo</title><ellipse style="stroke-linecap:round;fill:#2c8ebb00" cx="10" cy="10" rx="10" ry="10"><title>circle</title></ellipse><path d="M 16.803 13.031 C 16.734 12.483 16.27 12.105 15.675 12.113 C 14.787 12.124 14.042 12.583 13.548 12.888 C 13.387 12.99 13.219 13.082 13.046 13.163 C 13.077 12.714 13.051 12.128 12.819 11.483 C 12.537 10.711 12.159 10.236 11.888 9.962 C 12.2 9.506 12.63 8.843 12.83 7.815 C 13.009 6.938 12.95 5.575 12.553 4.811 C 12.471 4.657 12.336 4.544 12.166 4.499 C 12.097 4.48 11.966 4.441 11.707 4.514 C 11.317 3.712 11.182 3.623 11.079 3.553 C 10.862 3.414 10.608 3.384 10.368 3.472 C 10.047 3.588 9.773 3.897 9.515 4.445 L 9.411 4.68 C 8.92 4.715 8.148 4.893 7.496 5.599 C 7.414 5.688 7.256 5.753 7.09 5.815 L 7.094 5.815 C 6.755 5.935 6.6 6.213 6.411 6.715 C 6.148 7.418 6.418 8.109 6.685 8.556 C 6.322 8.88 5.84 9.398 5.585 10.004 C 5.272 10.753 5.233 11.487 5.245 11.884 C 4.975 12.17 4.558 12.706 4.511 13.309 C 4.449 14.151 4.755 14.722 4.89 14.93 C 4.928 14.989 4.97 15.043 5.018 15.093 C 5.002 15.197 4.999 15.309 5.022 15.425 C 5.073 15.695 5.243 15.915 5.501 16.054 C 6.011 16.324 6.721 16.44 7.269 16.165 C 7.467 16.374 7.825 16.574 8.473 16.574 L 8.512 16.574 C 8.678 16.574 10.786 16.463 11.4 16.311 C 11.615 16.263 11.816 16.166 11.987 16.026 C 12.381 15.902 13.469 15.531 14.497 14.867 C 15.223 14.396 15.474 14.296 16.014 14.164 C 16.54 14.037 16.868 13.558 16.802 13.029 L 16.803 13.031 Z M 15.885 13.599 C 15.267 13.746 14.954 13.88 14.189 14.379 C 12.996 15.151 11.691 15.51 11.691 15.51 C 11.691 15.51 11.583 15.672 11.27 15.745 C 10.73 15.877 8.695 15.989 8.509 15.993 C 8.011 15.997 7.707 15.865 7.621 15.66 C 7.363 15.042 7.991 14.772 7.991 14.772 C 7.991 14.772 7.852 14.687 7.771 14.61 C 7.698 14.536 7.62 14.39 7.593 14.444 C 7.496 14.679 7.446 15.255 7.187 15.514 C 6.832 15.873 6.16 15.754 5.762 15.545 C 5.325 15.313 5.794 14.769 5.794 14.769 C 5.794 14.769 5.558 14.909 5.369 14.622 C 5.199 14.359 5.041 13.912 5.083 13.36 C 5.13 12.731 5.832 12.12 5.832 12.12 C 5.832 12.12 5.709 11.19 6.114 10.236 C 6.481 9.367 7.47 8.668 7.47 8.668 C 7.47 8.668 6.639 7.75 6.948 6.923 C 7.149 6.383 7.23 6.386 7.296 6.363 C 7.528 6.274 7.751 6.178 7.917 5.996 C 8.748 5.1 9.805 5.27 9.805 5.27 C 9.805 5.27 10.307 3.745 10.77 4.042 C 10.913 4.135 11.427 5.277 11.427 5.277 C 11.427 5.277 11.975 4.956 12.037 5.077 C 12.369 5.721 12.407 6.954 12.261 7.702 C 12.014 8.937 11.396 9.601 11.149 10.019 C 11.091 10.115 11.813 10.42 12.268 11.683 C 12.689 12.838 12.314 13.806 12.379 13.914 L 12.395 13.941 C 12.395 13.941 12.877 13.98 13.847 13.381 C 14.364 13.06 14.978 12.702 15.677 12.694 C 16.352 12.683 16.387 13.475 15.877 13.598 L 15.885 13.599 Z" style="fill-rule:nonzero;fill:#fff;paint-order:fill"><title>cat</title></path></g></g></svg>