<svg width="60" height="60" viewBox="0 0 60 60" fill="none" xmlns="http://www.w3.org/2000/svg"><path fill-rule="evenodd" clip-rule="evenodd" d="M20 60L52 60C54.2091 60 56 58.2091 56 56L26.8284 56C25.0174 56 23.2806 56.7194 22 58L20 60ZM40 0L8 0C5.79086 0 4 1.79086 4 4L33.1716 4C34.9826 4 36.7194 3.28058 38 2L40 0ZM8 51.1694C7.35376 51.7062 6.54012 52 5.70003 52H4L4 48.7L4 11.3L4 8H5.70004C6.54013 8 7.35376 8.29383 8 8.83061L30 27.1041L52 8.83061C52.6462 8.29383 53.4599 8 54.3 8H56V11.3L56 48.7V52H54.3C53.4599 52 52.6462 51.7062 52 51.1694L30 32.8959L8 51.1694ZM26.5135 30L8 14.6224L8 45.3776L26.5135 30ZM52 45.3776L33.4865 30L52 14.6224L52 45.3776Z" fill="url(#paint0_linear_535_109)"/><defs><linearGradient id="paint0_linear_535_109" x1="4" y1="60" x2="67.5512" y2="17.1194" gradientUnits="userSpaceOnUse"><stop stop-color="#7438F3"/><stop offset="1" stop-color="#FF80B5"/></linearGradient></defs></svg>
