<svg width="68" height="68" viewBox="0 0 68 68" fill="none" xmlns="http://www.w3.org/2000/svg"><path fill-rule="evenodd" clip-rule="evenodd" d="M14 68H32C36.4183 68 40 64.4183 40 60H52.7H56V58.3C56 57.4599 55.7062 56.6462 55.1694 56L40 37.7371V30.2629L55.1694 12C55.7062 11.3538 56 10.5401 56 9.70004V8H52.7H36H32C32 5.79086 33.7909 4 36 4H52.3795C58.5825 4 61.9711 11.2347 58 16L45.9071 30.6842C44.6742 32.1814 44 34.0605 44 36C45.9032 36 47.7104 35.1643 48.9429 33.7142L61.6682 18.7433C63.1735 16.9724 64 14.7238 64 12.3995V10C64 4.47715 59.5228 0 54 0H36C31.5817 0 28 3.58173 28 8H15.3H12V9.70003C12 10.5401 12.2938 11.3538 12.8306 12L28 30.2629V37.7371L12.8306 56C12.2938 56.6462 12 57.4599 12 58.3V60H15.3H32H36C36 62.2091 34.2091 64 32 64H15.6205C9.41751 64 6.02894 56.7653 10 52L22.0929 37.3158C23.3258 35.8186 24 33.9395 24 32C22.0968 32 20.2896 32.8357 19.0571 34.2858L6.33184 49.2567C4.82652 51.0276 4 53.2762 4 55.6005V58C4 63.5228 8.47715 68 14 68ZM40 56H49.3776L40 44.7101V56ZM36 39.8943V56H32V39.8943L34 37.4865L36 39.8943ZM40 23.2899L49.3776 12H40V23.2899ZM36 12V28.1056L34 30.5135L32 28.1056V12H36ZM28 12H18.6224L28 23.2899V12ZM28 44.7101L18.6224 56H28V44.7101ZM4 44L4 12C4 9.79087 5.79086 8 8 8L8 37.1716C8 38.9826 7.28058 40.7194 6 42L4 44ZM64 24V56C64 58.2091 62.2091 60 60 60V30.8284C60 29.0174 60.7194 27.2806 62 26L64 24Z" fill="url(#paint0_linear_250_1257)"/><defs><linearGradient id="paint0_linear_250_1257" x1="4" y1="34" x2="252" y2="34" gradientUnits="userSpaceOnUse"><stop stop-color="#7438F3" stop-opacity="0.5"/><stop offset="0.755208" stop-color="#FF80B5" stop-opacity="0.8"/></linearGradient></defs></svg>
