<svg xmlns="http://www.w3.org/2000/svg" width="14" height="14" fill="none" viewBox="0 0 14 14"><path fill="#fff" d="M13 1H1C0.447715 1 0 1.44772 0 2C0 2.55228 0.447716 3 1 3H13C13.5523 3 14 2.55228 14 2C14 1.44772 13.5523 1 13 1Z"/><path fill="#fff" d="M13 6H1C0.447715 6 0 6.44772 0 7C0 7.55228 0.447716 8 1 8H13C13.5523 8 14 7.55228 14 7C14 6.44772 13.5523 6 13 6Z"/><path fill="#fff" d="M13 11H1C0.447715 11 0 11.4477 0 12C0 12.5523 0.447716 13 1 13H13C13.5523 13 14 12.5523 14 12C14 11.4477 13.5523 11 13 11Z"/></svg>