<svg xmlns="http://www.w3.org/2000/svg" width="14" height="14" fill="none" viewBox="0 0 14 14"><path stroke="#fff" stroke-linejoin="round" stroke-width="2" d="M6.34375 10.9375C8.88081 10.9375 10.9375 8.88081 10.9375 6.34375C10.9375 3.80669 8.88081 1.75 6.34375 1.75C3.80669 1.75 1.75 3.80669 1.75 6.34375C1.75 8.88081 3.80669 10.9375 6.34375 10.9375Z"/><path fill="#fff" d="M10.299 8.88518C9.90844 8.49465 9.27528 8.49465 8.88475 8.88518C8.49423 9.2757 8.49423 9.90887 8.88475 10.2994L10.299 8.88518ZM11.5426 12.9572C11.9331 13.3478 12.5663 13.3478 12.9568 12.9572C13.3473 12.5667 13.3473 11.9335 12.9568 11.543L11.5426 12.9572ZM8.88475 10.2994L11.5426 12.9572L12.9568 11.543L10.299 8.88518L8.88475 10.2994Z"/></svg>