<svg width="24" height="25" viewBox="0 0 24 25" fill="none" xmlns="http://www.w3.org/2000/svg"><path d="M8.81807 18.0049C7.75741 21.1868 3.51477 21.1868 3.51477 21.1868C3.51477 21.1868 3.51477 16.9442 6.69675 15.8835" stroke="white" stroke-width="2" stroke-linecap="round" stroke-linejoin="round"/><path d="M18.3639 10.5803L12 16.9443L7.75732 12.7016L14.1213 6.33766C16.531 3.92789 18.9408 3.9514 19.9685 4.10473C20.1267 4.12832 20.2732 4.20211 20.3863 4.31524C20.4995 4.42836 20.5733 4.57484 20.5969 4.73307C20.7502 5.76077 20.7737 8.17053 18.3639 10.5803Z" stroke="white" stroke-width="2" stroke-linecap="round" stroke-linejoin="round"/><path d="M17.3033 11.6411V17.6944C17.3033 17.7929 17.2839 17.8904 17.2462 17.9814C17.2085 18.0724 17.1533 18.1551 17.0836 18.2247L14.0516 21.2568C13.9556 21.3528 13.8354 21.4209 13.7037 21.4539C13.572 21.4869 13.4338 21.4836 13.3039 21.4443C13.174 21.4049 13.0572 21.3311 12.9659 21.2306C12.8747 21.13 12.8124 21.0067 12.7858 20.8735L12 16.9444" stroke="white" stroke-width="2" stroke-linecap="round" stroke-linejoin="round"/><path d="M13.0607 7.39844H7.00738C6.90889 7.39844 6.81136 7.41784 6.72037 7.45553C6.62938 7.49322 6.5467 7.54846 6.47705 7.61811L3.44501 10.6501C3.34902 10.7461 3.28088 10.8664 3.24787 10.9981C3.21485 11.1297 3.21818 11.2679 3.25752 11.3978C3.29686 11.5277 3.37072 11.6446 3.47124 11.7358C3.57175 11.827 3.69514 11.8893 3.82826 11.9159L7.75738 12.7017" stroke="white" stroke-width="2" stroke-linecap="round" stroke-linejoin="round"/></svg>
