<svg width="16" height="17" viewBox="0 0 16 17" fill="none" xmlns="http://www.w3.org/2000/svg"><g clip-path="url(#clip0_448_1964)"><path fill-rule="evenodd" clip-rule="evenodd" d="M7.99998 0.279785C8.13999 0.279695 8.27724 0.318799 8.39618 0.392672C8.51512 0.466545 8.611 0.572237 8.67298 0.697785L10.555 4.51278L14.765 5.12478C14.9034 5.14489 15.0335 5.20334 15.1405 5.2935C15.2475 5.38367 15.3271 5.50196 15.3704 5.63502C15.4137 5.76807 15.4189 5.91058 15.3854 6.04644C15.3519 6.18229 15.2811 6.30607 15.181 6.40379L12.135 9.37379L12.854 13.5658C12.8777 13.7037 12.8623 13.8455 12.8097 13.9752C12.757 14.1048 12.6691 14.2172 12.5559 14.2995C12.4427 14.3818 12.3087 14.4308 12.1691 14.4409C12.0295 14.451 11.8899 14.4219 11.766 14.3568L7.99998 12.3768L4.23398 14.3568C4.11017 14.4218 3.97065 14.4509 3.83117 14.4408C3.6917 14.4307 3.55782 14.3818 3.44466 14.2996C3.33151 14.2175 3.24357 14.1053 3.19079 13.9758C3.13802 13.8463 3.12249 13.7046 3.14598 13.5668L3.86598 9.37279L0.817981 6.40379C0.717548 6.30611 0.646481 6.18225 0.612833 6.04625C0.579186 5.91026 0.584303 5.76755 0.627606 5.63431C0.670908 5.50107 0.750665 5.38263 0.857837 5.2924C0.96501 5.20216 1.09531 5.14375 1.23398 5.12379L5.44398 4.51278L7.32698 0.697785C7.38896 0.572237 7.48485 0.466545 7.60379 0.392672C7.72272 0.318799 7.85997 0.279695 7.99998 0.279785V0.279785Z" fill="#E3B341"/></g><defs><clipPath id="clip0_448_1964"><rect width="16" height="16" fill="white" transform="translate(0 0.0297852)"/></clipPath></defs></svg>
